/* XPM */
static char *_d33640e040d4391e02952c3dbaa794bwODgecg45TK6xYlE[] = {
/* columns rows colors chars-per-pixel */
"64 64 7 1 ",
"  c None",
". c #191919",
"X c #4D3533",
"o c #63413D",
"O c #704844",
"+ c #898989",
"@ c #A4A4A4",
/* pixels */
"                                                                ",
"                                                                ",
"                                                                ",
"                                                                ",
"                                                                ",
"                       ...................                      ",
"                       ...................                      ",
"                       ...................                      ",
"                       ...................                      ",
"                    ...+++++++++++++++@@@@....                  ",
"                    ...+++++++++++++++@@@@....                  ",
"                    ...+++++++++++++++@@@@....                  ",
"                ....+++XXXXooooOOOOOOOoooo@@@@...               ",
"                ....+++XXXXooooOOOOOOOoooo@@@@...               ",
"                ....+++XXXXooooOOOOOOOoooo@@@@...               ",
"                ....+++XXXXooooOOOOOOOoooo@@@@...               ",
"            ....++++XXXooooooooOOOOOOOoooooooo@@@....           ",
"            ....++++XXXooooooooOOOOOOOoooooooo@@@....           ",
"            ....++++XXXooooooooOOOOOOOoooooooo@@@....           ",
"            ....++++XXXooooooooOOOOOOOoooooooo@@@....           ",
"            ....++++XXXooooOOOOOOOOOOOOOOOoooo@@@....           ",
"            ....++++XXXooooOOOOOOOOOOOOOOOoooo@@@....           ",
"            ....++++XXXooooOOOOOOOOOOOOOOOoooo@@@....           ",
"            ........+++XXXXooooooooooooooo@@@@.......           ",
"            ........+++XXXXooooooooooooooo@@@@.......           ",
"            ........+++XXXXooooooooooooooo@@@@.......           ",
"            ........+++XXXXooooooooooooooo@@@@.......           ",
"            ....XXXXXXX+++++++++++++++@@@@ooooooo....           ",
"            ....XXXXXXX+++++++++++++++@@@@ooooooo....           ",
"            ....XXXXXXX+++++++++++++++@@@@ooooooo....           ",
"            ....XXXXXXX+++++++++++++++@@@@ooooooo....           ",
"            ....++++XXXOOOOOOOOooooOOOOOOOoooo@@@....           ",
"            ....++++XXXOOOOOOOOooooOOOOOOOoooo@@@....           ",
"            ....++++XXXOOOOOOOOooooOOOOOOOoooo@@@....           ",
"            ....++++XXXOOOOOOOOooooOOOOOOOoooo@@@....           ",
"            ....XXXX+++OOOOOOOOooooOOOOOOO@@@@ooo....           ",
"            ....XXXX+++OOOOOOOOooooOOOOOOO@@@@ooo....           ",
"            ....XXXX+++OOOOOOOOooooOOOOOOO@@@@ooo....           ",
"            ....XXXXXXX+++++++++++++++++++ooooooo....           ",
"            ....XXXXXXX+++++++++++++++++++ooooooo....           ",
"            ....XXXXXXX+++++++++++++++++++ooooooo....           ",
"            ....XXXXXXX+++++++++++++++++++ooooooo....           ",
"            ....XXXXOOOOOOOOOOOooooOOOOOOOooooooo....           ",
"            ....XXXXOOOOOOOOOOOooooOOOOOOOooooooo....           ",
"            ....XXXXOOOOOOOOOOOooooOOOOOOOooooooo....           ",
"            ....XXXXOOOOOOOOOOOooooOOOOOOOooooooo....           ",
"                ....XXXOOOOOOOOooooOOOOOOOoooo...               ",
"                ....XXXOOOOOOOOooooOOOOOOOoooo...               ",
"                ....XXXOOOOOOOOooooOOOOOOOoooo...               ",
"                    ...ooooooooooooooooooo....                  ",
"                    ...ooooooooooooooooooo....                  ",
"                    ...ooooooooooooooooooo....                  ",
"                    ...ooooooooooooooooooo....                  ",
"                       ...................                      ",
"                       ...................                      ",
"                       ...................                      ",
"                       ...................                      ",
"                                                                ",
"                                                                ",
"                                                                ",
"                                                                ",
"                                                                ",
"                                                                ",
"                                                                "
};
