/* XPM */
static char *c3bed08fd4cb45b5d6f06e237d2efc0f5MZr8DzzsgG7GeKM[] = {
/* columns rows colors chars-per-pixel */
"64 64 22 1 ",
"  c None",
". c #1C2F60",
"X c #1C2F61",
"o c #1E3160",
"O c #1C3162",
"+ c #1E3162",
"@ c #635D96",
"# c #635E96",
"$ c #655F96",
"% c #4862E5",
"& c #36A6E0",
"* c #74DDF3",
"= c #74DDF5",
"- c #74DFF5",
"; c #A4858F",
": c #A6858F",
"> c #FDB282",
", c #FFB482",
"< c #FDE1AE",
"1 c #FFE3AE",
"2 c #C4C7EE",
"3 c gray99",
/* pixels */
"                                                                ",
"                                                                ",
"                     OOOOOOOOOOOOOOOOOOOOOOOOO                  ",
"                     OOOOOOOOOOOOOOOOOOOOOOOOO                  ",
"                     OOOOOOOOOOOOOOOOOOOOOOOOO                  ",
"                     OOOOOOOOOOOOOOOOOOOOOOOOO                  ",
"                 OOOO-------------------------OOOO              ",
"                 OOOO-------------------------OOOO              ",
"                 OOOO-------------------------OOOO              ",
"                 OOOO-------------------------OOOO              ",
"             ....---------------------------------...           ",
"             ....---------------------------------...           ",
"             ....---------------------------------...           ",
"             ....---------------------------------...           ",
"             ....---------------------------------...           ",
"             ....---------------------------------...           ",
"             ....---------------------------------...           ",
"             ....---------------------------------...           ",
"             ....---------------------------------...           ",
"             ....---------------------------------...           ",
"             ....---------------------------------...           ",
"             ....-----------:::::::::::-----------...           ",
"             ....-----------:::::::::::-----------...           ",
"             ....-----------:::::::::::-----------...           ",
"             OOOO&&&&---@@@@:::::::::::@@@----&&&&OOO           ",
"             OOOO&&&&---@@@@:::::::::::@@@----&&&&OOO           ",
"             OOOO&&&&---@@@@:::::::::::@@@----&&&&OOO           ",
"             OOOO&&&&---@@@@:::::::::::@@@----&&&&OOO           ",
"          ...,,,,@@@@&&&@@@@:::::::::::@@@&&&&@@@@,,,....       ",
"          ...,,,,@@@@&&&@@@@:::::::::::@@@&&&&@@@@,,,....       ",
"          ...,,,,@@@@&&&@@@@:::::::::::@@@&&&&@@@@,,,....       ",
"          ...,,,,@@@@&&&@@@@:::::::::::@@@&&&&@@@@,,,....       ",
"          ...>>>>::::@@@@@@@:::::::::::@@@@@@@::::>>>....       ",
"          ...>>>>::::@@@@@@@:::::::::::@@@@@@@::::>>>....       ",
"          ...>>>>::::@@@@@@@:::::::::::@@@@@@@::::>>>....       ",
"             ....:::::::@@@@:::::::::::@@@::::::::...           ",
"             ....:::::::@@@@:::::::::::@@@::::::::...           ",
"             ....:::::::@@@@:::::::::::@@@::::::::...           ",
"             ....:::::::@@@@:::::::::::@@@::::::::...           ",
"                 ....@@@::::@@@::::@@@@:::@@@@....              ",
"                 ....@@@::::@@@::::@@@@:::@@@@....              ",
"                 ....@@@::::@@@::::@@@@:::@@@@....              ",
"                 .......%%%%&&&@@@@&&&&%%%OOOOOOOO              ",
"                 .......%%%%&&&@@@@&&&&%%%OOOOOOOO              ",
"                 .......%%%%&&&@@@@&&&&%%%OOOOOOOO              ",
"                 .......%%%%&&&@@@@&&&&%%%OOOOooOO              ",
"                 .......----***********---11111111...           ",
"                 .......----***********---11111111...           ",
"                 .......----***********---11111111...           ",
"                 .......----***********---11111111...           ",
"                     ...$$$$OOO........@@@>>>>1111...           ",
"                     ...$$$$OOO........@@@>>>>1111...           ",
"                     ...$$$$OOO........@@@>>>>1111...           ",
"                     ...3333333@@@@....@@@........              ",
"                     ...3333333@@@@....@@@........              ",
"                     ...3333333@@@@....@@@........              ",
"                     ...3333333@@@@....@@@........              ",
"                     ...33333332222.......                      ",
"                     ...33333332222.......                      ",
"                     ...33333332222.......                      ",
"                     ...33333332222.......                      ",
"                                                                ",
"                                                                ",
"                                                                "
};
