/* XPM */
static char *_4053aed2a9348d3ca93361d668fe83azsLnLLIBRjDi7mFz[] = {
/* columns rows colors chars-per-pixel */
"64 64 25 1 ",
"  c None",
". c #1C2F60",
"X c #1D2F60",
"o c #1D3060",
"O c #1C3061",
"+ c #1D3061",
"@ c #635D96",
"# c #36A5DF",
"$ c #36A6E0",
"% c #74DEF4",
"& c #74DFF5",
"* c #75DFF5",
"= c #A5858F",
"- c #A6858F",
"; c #FEB382",
": c #FFB482",
"> c #FEE2AE",
", c #FEE3AE",
"< c #FFE3AE",
"1 c #978BDE",
"2 c #C3C6ED",
"3 c #C4C7EE",
"4 c #FBFBFB",
"5 c #FBFCFC",
"6 c gray99",
/* pixels */
"                                                                ",
"                                                                ",
"                   OOOOOOOOOOOOOOOOOOOOOOOOOO                   ",
"                   OOOOOOOOOOOOOOOOOOOOOOOOOO                   ",
"                   OOOOOOOOOOOOOOOOOOOOOOOOOO                   ",
"                   OOOOOOOOOOOOOOOOOOOOOOOOOO                   ",
"               OOOO&&&&&&&&&&&&&&&&&&&&&&&&&&OOO                ",
"               OOOO&&&&&&&&&&&&&&&&&&&&&&&&&&OOO                ",
"               OOOO&&&&&&&&&&&&&&&&&&&&&&&&&&OOO                ",
"               OOOO&&&&&&&&&&&&&&&&&&&&&&&&&&OOO                ",
"            ...&&&&&&&&&&&&&&&&&&&&&&&&&&&&&&&&&....            ",
"            ...&&&&&&&&&&&&&&&&&&&&&&&&&&&&&&&&&....            ",
"            ...&&&&&&&&&&&&&&&&&&&&&&&&&&&&&&&&&....            ",
"            ...&&&&&&&&&&&&&&&&&&&&&&&&&&&&&&&&&....            ",
"            ...&&&&&&&&&&&&&&&&&&&&&&&&&&&&&&&&&....            ",
"            ...&&&&&&&&&&&&&&&&&&&&&&&&&&&&&&&&&....            ",
"            ...&&&&&&&&&&&&&&&&&&&&&&&&&&&&&&&&&....            ",
"            ...&&&&&&&&&&&33336666333&&&&&&&&&&&....            ",
"            ...&&&&&&&&&&&33336666333&&&&&&&&&&&....            ",
"            ...&&&&&&&&&&&33336666333&&&&&&&&&&&....            ",
"            ...&&&&&&&&&&&33336666333&&&&&&&&&&&....            ",
"            ...&&&&&&&&&&&55555555555&&&&&&&&&&&....            ",
"            ...&&&&&&&&&&&55555555555&&&&&&&&&&&....            ",
"            ...&&&&&&&&&&&55555555555&&&&&&&&&&&....            ",
"            OOO$$$$$$$$$$$$$$$$$$$$$$$$$$$$$$$$$OOOO            ",
"            OOO$$$$$$$$$$$$$$$$$$$$$$$$$$$$$$$$$OOOO            ",
"            OOO$$$$$$$$$$$$$$$$$$$$$$$$$$$$$$$$$OOOO            ",
"            OOO$$$$$$$$$$$$$$$$$$$$$$$$$$$$$$$$$OOOO            ",
"        ....:::@@@@&&&&&&&&&&&&&&&&&&&&&&&&&&@@@::::....        ",
"        ....:::@@@@&&&&&&&&&&&&&&&&&&&&&&&&&&@@@::::....        ",
"        ....:::@@@@&&&&&&&&&&&&&&&&&&&&&&&&&&@@@::::....        ",
"        ....:::@@@@&&&&&&&&&&&&&&&&&&&&&&&&&&@@@::::....        ",
"        ....;;;----<<<<...<<<<<<<<<<<....<<<<---;;;;....        ",
"        ....;;;----<<<<...<<<<<<<<<<<....<<<<---;;;;....        ",
"        ....;;;----<<<<...<<<<<<<<<<<....<<<<---;;;;....        ",
"            ...----<<<<OOO<<<<<<<<<<<OOOO<<<<---....            ",
"            ...----<<<<OOO<<<<<<<<<<<OOOO<<<<---....            ",
"            ...----<<<<OOO<<<<<<<<<<<OOOO<<<<---....            ",
"            ...----<<<<OOO<<<<<<<<<<<OOOO<<<<---....            ",
"               ....;;;;<<<<<<<<<<<<<<<<<<;;;;...                ",
"               ....;;;;<<<<<<<<<<<<<<<<<<;;;;...                ",
"               ....;;;;<<<<<<<<<<<<<<<<<<;;;;...                ",
"               ........$$$$$$$3333$$$####OOOOOOO                ",
"               ........$$$$$$$3333$$$####OOOOOOO                ",
"               ........$$$$$$$3333$$$####OOOOOOO                ",
"               ........$$$$$$$3333$$$####OOOOOOO                ",
"            ...----OOOO&&&&&&&4444&&&....<<<<:::....            ",
"            ...----OOOO&&&&&&&4444&&&....<<<<:::....            ",
"            ...----OOOO&&&&&&&4444&&&....<<<<:::....            ",
"            ...----OOOO&&&&&&&4444&&&....<<<<:::....            ",
"            .......6666666OOOO...........<<<<<<<....            ",
"            .......6666666OOOO...........<<<<<<<....            ",
"            .......6666666OOOO...........<<<<<<<....            ",
"               ....22223336666....@@@@@@@.......                ",
"               ....22223336666....@@@@@@@.......                ",
"               ....22223336666....@@@@@@@.......                ",
"               ....22223336666....@@@@@@@.......                ",
"               ........3333333....1111111....                   ",
"               ........3333333....1111111....                   ",
"               ........3333333....1111111....                   ",
"               ........3333333....1111111....                   ",
"                                                                ",
"                                                                ",
"                                                                "
};
