/* XPM */
static char *c7ae9a348e9a41c48ab87d850494c380IKfxFXKRXkTI6eeX[] = {
/* columns rows colors chars-per-pixel */
"64 64 28 1 ",
"  c None",
". c #1C2F60",
"X c #1D2F60",
"o c #1D3060",
"O c #1C3061",
"+ c #1D3061",
"@ c #635D96",
"# c #4862E4",
"$ c #4862E5",
"% c #36A5DF",
"& c #36A6E0",
"* c #37A6E0",
"= c #74DEF4",
"- c #74DFF5",
"; c #75DFF5",
": c #A5858F",
"> c #A6858F",
", c #FEB382",
"< c #FFB482",
"1 c #FEE2AE",
"2 c #FFE3AE",
"3 c #968BDE",
"4 c #978BDE",
"5 c #C3C6ED",
"6 c #C4C7EE",
"7 c #FBFBFB",
"8 c #FBFCFC",
"9 c gray99",
/* pixels */
"                                                                ",
"                                                                ",
"                   OOOOOOOOOOOOOOOOOOOOOOOOOO                   ",
"                   OOOOOOOOOOOOOOOOOOOOOOOOOO                   ",
"                   OOOOOOOOOOOOOOOOOOOOOOOOOO                   ",
"                   OOOOOOOOOOOOOOOOOOOOOOOOOO                   ",
"               OOOO--------------------------OOO                ",
"               OOOO--------------------------OOO                ",
"               OOOO--------------------------OOO                ",
"               OOOO--------------------------OOO                ",
"            ...---------------------------------....            ",
"            ...---------------------------------....            ",
"            ...---------------------------------....            ",
"            ...---------------------------------....            ",
"            ...---------------------------------....            ",
"            ...---------------------------------....            ",
"            ...---------------------------------....            ",
"        OOOO...9999-----------------------------.......         ",
"        OOOO...9999-----------------------------.......         ",
"        OOOO...9999-----------------------------.......         ",
"        OOOO...9999-----------------------------.......         ",
"     ...----&&&8888----------------------------->>>>@@@....     ",
"     ...----&&&8888----------------------------->>>>@@@....     ",
"     ...----&&&8888----------------------------->>>>@@@....     ",
"     ...-------&&&&--------------------------&&&>>>>>>>....     ",
"     ...-------&&&&--------------------------&&&>>>>>>>....     ",
"     ...-------&&&&--------------------------&&&>>>>>>>....     ",
"     ...-------&&&&--------------------------&&&>>>>>>>....     ",
"        ....-------%%%%&&&&&&&&&&&&&&&&&&&&&&@@@>>>>>>>....     ",
"        ....-------%%%%&&&&&&&&&&&&&&&&&&&&&&@@@>>>>>>>....     ",
"        ....-------%%%%&&&&&&&&&&&&&&&&&&&&&&@@@>>>>>>>....     ",
"        ....-------%%%%&&&&&&&&&&&&&&&&&&&&&&@@@>>>>>>>....     ",
"            ...2222....222@@@@2222222@@@@@@@@@@@>>>>>>>....     ",
"            ...2222....222@@@@2222222@@@@@@@@@@@>>>>>>>....     ",
"            ...2222....222@@@@2222222@@@@@@@@@@@>>>>>>>....     ",
"            ...2222OOOO222>>>>2222222>>>>>>>>@@@....>>>....     ",
"            ...2222OOOO222>>>>2222222>>>>>>>>@@@....>>>....     ",
"            ...2222OOOO222>>>>2222222>>>>>>>>@@@....>>>....     ",
"            ...2222OOOO222>>>>2222222>>>>>>>>@@@....>>>....     ",
"               ....2222<<<>>>>,,,,>>>>>>>@@@@.......>>>....     ",
"               ....2222<<<>>>>,,,,>>>>>>>@@@@.......>>>....     ",
"               ....2222<<<>>>>,,,,>>>>>>>@@@@.......>>>....     ",
"                   ....666####OOOO<<<####....       ...         ",
"                   ....666####OOOO<<<####....       ...         ",
"                   ....666####OOOO<<<####....       ...         ",
"                   ....666####OOOO<<<####....       ...         ",
"                   ....999....<<<<222####....                   ",
"                   ....999....<<<<222####....                   ",
"                   ....999....<<<<222####....                   ",
"                   ....999....<<<<222####....                   ",
"               ........777....2222222....@@@@OOO                ",
"               ........777....2222222....@@@@OOO                ",
"               ........777....2222222....@@@@OOO                ",
"            ...3333@@@@..............OOOO3333555....            ",
"            ...3333@@@@..............OOOO3333555....            ",
"            ...3333@@@@..............OOOO3333555....            ",
"            ...3333@@@@..............OOOO3333555....            ",
"               ....3333@@@...........66666666...                ",
"               ....3333@@@...........66666666...                ",
"               ....3333@@@...........66666666...                ",
"               ....3333@@@...........66666666...                ",
"                                                                ",
"                                                                ",
"                                                                "
};
