/* XPM */
static char *f1dbfc2c26004b45989f0eee1c301ba41wAQMqbwSRIrGurF[] = {
/* columns rows colors chars-per-pixel */
"64 64 26 1 ",
"  c None",
". c #1C2F60",
"X c #1D2F60",
"o c #1D3060",
"O c #1C3061",
"+ c #1D3061",
"@ c #635D96",
"# c #36A5DF",
"$ c #36A6E0",
"% c #37A6E0",
"& c #74DEF4",
"* c #74DEF5",
"= c #74DFF5",
"- c #75DFF5",
"; c #A5858F",
": c #A6858F",
"> c #FEB382",
", c #FEB482",
"< c #FFB482",
"1 c #FEE2AE",
"2 c #FFE3AE",
"3 c #978BDE",
"4 c #C4C7EE",
"5 c #FBFBFB",
"6 c #FBFCFC",
"7 c gray99",
/* pixels */
"                                                                ",
"                                                                ",
"                   OOOOOOOOOOOOOOOOOOOOOOOOOO                   ",
"                   OOOOOOOOOOOOOOOOOOOOOOOOOO                   ",
"                   OOOOOOOOOOOOOOOOOOOOOOOOOO                   ",
"                   OOOOOOOOOOOOOOOOOOOOOOOOOO                   ",
"                OOO==========================OOOO               ",
"                OOO==========================OOOO               ",
"                OOO==========================OOOO               ",
"                OOO==========================OOOO               ",
"            ....=================================...            ",
"            ....=================================...            ",
"            ....=================================...            ",
"            ....=================================...            ",
"            ....=================================...            ",
"            ....=================================...            ",
"            ....=================================...            ",
"        ........=============================7777...OOOO        ",
"        ........=============================7777...OOOO        ",
"        ........=============================7777...OOOO        ",
"        ........=============================7777...OOOO        ",
"     ...@@@@::::=============================6666%%%====...     ",
"     ...@@@@::::=============================6666%%%====...     ",
"     ...@@@@::::=============================6666%%%====...     ",
"     ...::::::::%%%==========================%%%%=======...     ",
"     ...::::::::%%%==========================%%%%=======...     ",
"     ...::::::::%%%==========================%%%%=======...     ",
"     ...::::::::%%%==========================%%%%=======...     ",
"     ...::::::::@@@%%%%%%%%%%%%%%%%%%%%%%####=======....        ",
"     ...::::::::@@@%%%%%%%%%%%%%%%%%%%%%%####=======....        ",
"     ...::::::::@@@%%%%%%%%%%%%%%%%%%%%%%####=======....        ",
"     ...::::::::@@@%%%%%%%%%%%%%%%%%%%%%%####=======....        ",
"     ...::::::::@@@@@@@@@@@1111111@@@@111....1111...            ",
"     ...::::::::@@@@@@@@@@@1111111@@@@111....1111...            ",
"     ...::::::::@@@@@@@@@@@1111111@@@@111....1111...            ",
"     ...::::....@@@::::::::1111111::::111OOOO1111...            ",
"     ...::::....@@@::::::::1111111::::111OOOO1111...            ",
"     ...::::....@@@::::::::1111111::::111OOOO1111...            ",
"     ...::::....@@@::::::::1111111::::111OOOO1111...            ",
"     ...::::.......@@@@:::::::<<<<::::<<<1111....               ",
"     ...::::.......@@@@:::::::<<<<::::<<<1111....               ",
"     ...::::.......@@@@:::::::<<<<::::<<<1111....               ",
"        ....       OOOO::::>>>%%%%%%%%%%%....                   ",
"        ....       OOOO::::>>>%%%%%%%%%%%....                   ",
"        ....       OOOO::::>>>%%%%%%%%%%%....                   ",
"        ....       OOOO::::>>>%%%%%%%%%%%....                   ",
"                ...1111<<<<...===========........               ",
"                ...1111<<<<...===========........               ",
"                ...1111<<<<...===========........               ",
"                ...1111<<<<...===========........               ",
"                ...11111111...===========OOOOOOOO               ",
"                ...11111111...===========OOOOOOOO               ",
"                ...11111111...===========OOOOOOOO               ",
"            ....@@@...........@@@@3333OOO44445555...            ",
"            ....@@@...........@@@@3333OOO44445555...            ",
"            ....@@@...........@@@@3333OOO44445555...            ",
"            ....@@@...........@@@@3333OOO44445555...            ",
"                ...@@@@@@@@.......33337777777....               ",
"                ...@@@@@@@@.......33337777777....               ",
"                ...@@@@@@@@.......33337777777....               ",
"                ...@@@@@@@@.......33337777777....               ",
"                                                                ",
"                                                                ",
"                                                                "
};
