/* XPM */
static char *_2f9453d14424d56cd08c6e4cf574910ivMvGOzUXm0zu7i8[] = {
/* columns rows colors chars-per-pixel */
"64 64 12 1 ",
"  c #636917",
". c #656C17",
"X c #686F16",
"o c #72751B",
"O c #787B21",
"+ c #A2783C",
"@ c #7F8226",
"# c #A2814F",
"$ c #BD9842",
"% c #C6A740",
"& c #9CA8AD",
"* c #B3B0A9",
/* pixels */
"oooooooooooooooooooooooooooooooooooooooooooooooooooooooooooooooo",
"oooooooooooooooooooooooooooooooooooooooooooooooooooooooooooooooo",
"oooooooooooooooooooooooooooooooooooooooooooooooooooooooooooooooo",
"oooooooooooooooooooooooooooooooooooooooooooooooooooooooooooooooo",
"oooooooooooooooooooooooooooooooooooooooooooooooooooooooooooooooo",
"oooooooooooooooooooooooooooooooooooooooooooooooooooooooooooooooo",
"oooooooooooooooooooooooooooooooooooooooooooooooooooooooooooooooo",
"oooooooooooooooooooooooooooooooooooooooooooooooooooooooooooooooo",
"ooooooooooooooooooO@oooo@@oooooooooooooooooooooooooooooooooooooo",
"ooooooooooooooooooo@@ooO@ooooooooooooooooooooooooooooooooooooooo",
"oooooooooooooooooooOOoOO.ooooooooooooooooooooooooooooooooooooooo",
"ooooooooooooooooooo..oOO.ooooooooooooooooooooooooO@ooooOOooooooo",
"oooooooooooooooooooooo..oooooooooooooooooooooooooo@@ooOOoooooooo",
"oooooooooooooooooooooooooooooooooooooooooooooooooo.OOoOOoooooooo",
"oooooooooooooooooooooooooooooooooooooooooooooooooo.OOo..oooooooo",
"ooooooooooooooooooooooooooooooooooooooooooooooooooo..ooooooooooo",
"oooooooooooooooooooooooooooooooooooooooooooooooooooooooooooooooo",
"oooooooooooooooooooooooooooooooooooooooooooooooooooooooooooooooo",
"oooooooooooooooooooooooooooooooooooooooooooooooooooooooooooooooo",
"oooooooooooooooooooooooooooooooooooooooooooooooooooooooooooooooo",
"oooooooooooooooooooooooooooooooooooooooooooooooooooooooooooooooo",
"oooooooooooooooooooooooooooooooooooooooooooooooooooooooooooooooo",
"oooooooooooooooooooooooooooooooooooooo$$oooooooooooooooooooooooo",
"ooooooooooooooooooooooooooooooooooooo$++$o%%oooooooooooooooooooo",
"ooooooooooooooooooooooooooooooooooooo $$ %+%oooooooooooooooooooo",
"oooooooooooooooooooooooooooooooooooooo  o%% oooooooooooooooooooo",
"ooooooooooooooooooooooooooooooooooooooooo  ooooooooooooooooooooo",
"oooooooooooooooooooooooooooooooooooooooooooooooooooooooooooooooo",
"oooooooooooooooooooooooooooooooooooooooooooooooooooooooooooooooo",
"oooooooooooooooooooooooooooooooooooooooooooooooooooooooooooooooo",
"oooooooooooooooooooooooooooooooooooooooooooooooooooooooooooooooo",
"oooooooooooooooooooooooooooooooooooooooooooooooooooooooooooooooo",
"oooooooooooooooooooooooooooooooooooooooooooooooooooooooooooooooo",
"oooooooooooooooooooooooooooooooooooooooooooooooooooooooooooooooo",
"oooooooooooooooooooooooooooooooooooooooooooooooooooooooooooooooo",
"oooooooooooooooooooooooooooooooooooooooooooooooooooooooooooooooo",
"oooooooooooooooooooooooooooooooooooooooooooooooooooooooooooooooo",
"oooooooooooooooooooooooooooooooooooo@ooooooooooooooooooooooooooo",
"ooooooooooooooooooooooooooooooooooooo@oooooooooooooooooooooooooo",
"oooooooooooooooooooooooooooooooooooooOOooooooooooooooooooooooooo",
"ooooooooooooooooooooooooooooooooooooXOOooooooooooooooooooooooooo",
"ooooooooooooooooooooooooooooooooooo@OXXooooooooooooooooooooooooo",
"oooooooooooooooooooooooooooooooooooOOooooooooooooooooooooooooooo",
"oooooooooooooooooooooooooooooooooooXXooooooooooooooooooooooooooo",
"oooooooooooooooooooooooooooooooooooooooooooooooooooooooooooooooo",
"oooooooooooooooooooo@ooooooooooooooooooooooooooooooooooooooooooo",
"oooooooooooooooooooOOooO@@oooooooooooooooooooooooooooooooooooooo",
"oooooooooooooooo@ooOXoOO@oooooooooooooooooooooooooooooooOooooooo",
"ooooooooooooooooXOOoXOOOXoooooooooooooooooooooooooooooooOOoooooo",
"ooooooooooooooooXOOooOOXO@ooooooooooooooooooooooooooooo**Ooooooo",
"oooooooooooooooooXXooOXOOXoooooooooooooooooooooooooooo*#*Xoooooo",
"oooooooooooooooooooooXXOXooooooooooooooooooooooooooooo** ooooooo",
"ooooooooooo@@Ooooooooooooooooooooo@@ooooo@oooooooooooo  oooooooo",
"oooooooooooo@OOoooooooooooooooooooo@OOoO@ooooooooooooooooooooooo",
"ooooooooooooXOOoooooooooooooooooO@@XOXOOXooooooooooooooooooooooo",
"oooooooooooooXXoooooooooooooooooo@O**XOOXo@@ooo@oooooooooooooooo",
"oooooooooooooooooooooooooooooooooX*##*OXooo@@o@ooooooooooooooooo",
"oooooooooooooooooooooooooooooooooo ** oooooOOXOooooooooooooooooo",
"ooooooooooooooooooooooooooooooooooo  ooooo&&OXXooooooooooooooooo",
"ooooooooooooooooooooooooooooooooooooooooo&##&ooooooooooooooooooo",
"ooooooooooooooooooooooooooooooooooooooooo && o&&oooooooooooooooo",
"oooooooooooooooooooooooooooooooooooooooooo  oo#&oooooooooooooooo",
"oooooooooooooooooooooooooooooooooooooooooooooo  oooooooooooooooo",
"oooooooooooooooooooooooooooooooooooooooooooooooooooooooooooooooo"
};
