/* XPM */
static char *_c4ba055c6134a74df88fbffffea6fe0JHiu5LS3ffGVLoKV[] = {
/* columns rows colors chars-per-pixel */
"64 64 12 1 ",
"  c None",
". c #35003B",
"X c #623250",
"o c #1E5159",
"O c #9B0E3E",
"+ c #810844",
"@ c #84495C",
"# c #FFD968",
"$ c #FFE98F",
"% c #F8FFB8",
"& c #B8EEFF",
"* c #DEFEFF",
/* pixels */
"                                                                ",
"                                                                ",
"                                                                ",
"                                                                ",
"                                                                ",
"                                                                ",
"                                                                ",
"                                                                ",
"                                                                ",
"         @@@@@@@...                                             ",
"         @@@@@@@...                                             ",
"         @@@@@@@...                                             ",
"         @@@@@@@...                                             ",
"         @@@@XXX......                                          ",
"         @@@@XXX......                                          ",
"         @@@@XXX......                                          ",
"         .......XXX&&&....                                      ",
"         .......XXX&&&....                                      ",
"         .......XXX&&&....                                      ",
"             ...&&&***&&&&...                                   ",
"             ...&&&***&&&&...                                   ",
"             ...&&&***&&&&...                                   ",
"                ...###$$$$$$$..........                         ",
"                ...###$$$$$$$..........                         ",
"                ...###$$$$$$$..........                         ",
"                ...###$$$$$$$..........                         ",
"                   ...####$$$$$$$$$####...                      ",
"                   ...####$$$$$$$$$####...                      ",
"                   ...####$$$$$$$$$####...                      ",
"                      ....$$$$$$%%%%%%%###...                   ",
"                      ....$$$$$$%%%%%%%###...                   ",
"                      ....$$$$$$%%%%%%%###...                   ",
"                      ....###$$$$$$%%%%...ooo...                ",
"                      ....###$$$$$$%%%%...ooo...                ",
"                      ....###$$$$$$%%%%...ooo...                ",
"                      ....######$$$....+++OOO.......            ",
"                      ....######$$$....+++OOO.......            ",
"                      ....######$$$....+++OOO.......            ",
"                      ....######$$$....+++OOO.......            ",
"                          ...###...++++OOO+++...####...         ",
"                          ...###...++++OOO+++...####...         ",
"                          ...###...++++OOO+++...####...         ",
"                             ......OOOO......%%%$$$$###...      ",
"                             ......OOOO......%%%$$$$###...      ",
"                             ......OOOO......%%%$$$$###...      ",
"                                ..........$$$$$$$$$$###...      ",
"                                ..........$$$$$$$$$$###...      ",
"                                ..........$$$$$$$$$$###...      ",
"                                   ....######$$$####...         ",
"                                   ....######$$$####...         ",
"                                   ....######$$$####...         ",
"                                   ....######$$$####...         ",
"                                       ...######....            ",
"                                       ...######....            ",
"                                       ...######....            ",
"                                          ......                ",
"                                          ......                ",
"                                          ......                ",
"                                                                ",
"                                                                ",
"                                                                ",
"                                                                ",
"                                                                ",
"                                                                "
};
