/* XPM */
static char *dba695559f17431ea14a0b9a90b9ab56WqP2pQbTZRfSDcF2[] = {
/* columns rows colors chars-per-pixel */
"64 64 68 1 ",
"  c #31261E",
". c #4F2A14",
"X c #502B16",
"o c #512D18",
"O c #4F321F",
"+ c #56331E",
"@ c #4F3625",
"# c #543624",
"$ c #553927",
"% c #573C2C",
"& c #583E2E",
"* c #573F30",
"= c #583F30",
"- c #534236",
"; c #5A4234",
": c #5A4739",
"> c #5D4B3E",
", c #634C3B",
"< c #5D4E42",
"1 c #5C5247",
"2 c #5E5248",
"3 c #604F42",
"4 c #605146",
"5 c #6A5645",
"6 c #6B5847",
"7 c #61564C",
"8 c #63584F",
"9 c #6B5948",
"0 c #625952",
"q c #6B5E51",
"w c #665F58",
"e c #666057",
"r c #6B6154",
"t c #676159",
"y c #69635B",
"u c #6C6259",
"i c #69645B",
"p c #6A645D",
"a c #6B665D",
"s c #6C675E",
"d c #6C685E",
"f c #6D685F",
"g c #706557",
"h c #70685F",
"j c #6E6760",
"k c #6D6861",
"l c #706A62",
"z c #736E62",
"x c #726D65",
"c c #736E68",
"v c #757367",
"b c #7A7163",
"n c #7B7365",
"m c #747068",
"M c #767469",
"N c #7D776C",
"B c #7E786B",
"V c #837B71",
"C c #85837A",
"Z c #868579",
"A c #8B847A",
"S c #8F8D85",
"D c #908E87",
"F c #918F88",
"G c #939189",
"H c #94928B",
"J c #96948C",
"K c #98968E",
/* pixels */
"59655596555699>-66955569555595555995555965559655 966556695556955",
"ZZZZZZZZZZZZZZBbZZZZZZZZZZZZZZZZZZZZZZZZZZZZZZZZ5ZZZZZZZZZZZZZZZ",
"ZZZZZZZZZZZZZZBnZZZZZZZZZZZZZZZZZZZZZZZZZZZZZZZZrZZZZZZZZZZZZZZZ",
"ZZZZZZZZZZZZZZBnZZZZZZZZZZZZZZZZZZZZZZZZZZZZZZZZrZZZZZZZZZZZZZZZ",
"DSSDDDSSDDGJJJAVJJJJHHGFGHHGFGGGSSSSFDDSSFDDFJKKgDJJKHFFFGGGGFGH",
"ffffffffffffffrqfffffffffssfffffffffffffffffffff>fffffffffssffff",
"ffffffffffffssrqfffsffffsssssssfffffffffffffffss>ffffsffffssssss",
"ffffffffffasssq8ssssaaassssssaasffffffffffssssss,sssssaaassssssa",
"ffffffffffssssq8ssssaaassssssaasffffffffffssssss,sssssaaassssssa",
"ssssssssssaaaaq8aaaaaaaaaaaaaaaassssssssssaaaaaa>aaaaaaaaaaaaaaa",
"aaaaaaaaaaaaaaq8aaaaaaaaaaaaaaaaaaaaaaaaaaaaaaaa>aaaaaaaaaaaaaaa",
"aaaaaaaaaaaaaa07aaiiiiiiiiiiiiiaaaaaaaaaaaaaaaaa&aaaiiiiiiiiiiii",
"aiiiiiiiiiiiii74yyyyyyiiiiiiiiiiiaaiiiiiiiiiiiii&yyyyyyyiiiiiiii",
"aiiiiiiiiiiiii74yyyyyyiiiiiiiiiiiaaiiiiiiiiiiiii&yyyyyyyiiiiiiii",
"yyyyyyyyyyyyyy74yyyyyyyyyyyyyyyyyyyyyyyyyyyyyyyy&tyyyyyyyyyyyyyy",
"tttttytyyyyyyy84yyyyyyyyyyyyyyyttttttttytyyyyyyy%yyyyyyyyyyyyyyy",
"tttttttttttttt74tttttttttttttttttttttttttttttttt#ttttttttttttttt",
"Xoo..XooXXXooo#$oooX..ooX..oooo.oooo.XXoo.XXoo..:oooXXoooX..ooX.",
"Xoo..XooXXXooo#$oooX..ooX..oooo.oooo.XXoo.XXoo..:oooXXoooX..ooX.",
"1111111111111111111111#111111112111111111111111111111111O1111112",
"1111111111111111111111#111111112111111111111111111111111@1111112",
"1111111111111111111111@111111112111111111111111111111111@1111112",
"1111111111111111111111@111111112111111111111111111111111@1111112",
"1111111111111111111111$111111112111111111111111111111111@1111112",
"1111111111111111111111$111111111111111111111111111111111@1111111",
"tttttttttttttttttttttt;ttttttttttttttttttttttttttttttttt*ttttttt",
"8887778888000000001<>>#><000000888887777880000000000<<>>#>770000",
"8887778888000000001<>>#><000000888887777880000000000<<>>#>770000",
"saaww<xxmmmcccmmxxlxxxlhlxxllllxxxxxx44iaaaaaaaaaaaaaayyyiaaaaaa",
"ttt00skkkkkkkkkkkkkkkkkkkkkkkkkkkkkkk44ttttttttttttttttttttttttt",
"ttt00jkkkkkkkkkkkkkkkkkkkkkkkkkkkkkkk44ttttttttttttttttttttttttt",
"ttt00lkkkkkkkkkkkkkkkkkkkkkkkkkkkkkkk11ttttttttttttttttttttttttt",
"ttt00lkkkkkkkkkkkkkkkkkkkkkkkkkkkkkkk11ttttttttttttttttttttttttt",
"ttt00skkkkkkkkkkkkkkkkkkkkkkkkkkkkkkk44ttttttttttttttttttttttttt",
"ttt77ukkkkkkkkkkkkkkkkkkkkkkkkkkkkkkk&&ttttttttttttttttttttttttt",
"wqw11qrraasayyssaaysssyyyssyyyysyrrys&&0qwww0qwwwqwwwwwwqweewwtt",
"7<<>>;;;:::>>>>>>>>>>>#&%%%*=%%%%$%%%::&&%%%=&==;;;;;;;;%344qqwq",
"7<<>>;;;:::>>>>>>>>>>>#&%%%%&%%%%$$$$::=&%%%=&==;;;;;;;;%344qqww",
"tttwwwwwwwwwwwwwwwwwww%<<7777770777770777077777707777<<<%ttttttt",
"wwwwwwwwwwwwwwwwwwwwww;0000000000000000000000000000000<<;wwwwwww",
"wwwwwwwwwwwwwwwwwwwwww1000000000000000000000000000000000;wwwwwww",
"wwwwwwwwwwwwwwwwwwwwww<000000000000000000000000000000000;wwwwwww",
"wwwwwwwwwwwwwwwwwwwwww<000000000000000000000000000000000;wwwwwww",
"wwwwwwwwwwwwwwwwwwwwww%000000000000000000000000000000000$wwwwwww",
"wwwwwwwwwwwwwwwwwwwwww#000000000000000000000000000000000+wwwwwww",
"2<<>>>11111111<<11<####%$$$*:<<><<<<17772%&&=*%%&;$$##+++#::<<<<",
"2<<>>>11111111<<11<####%$$$*:<<><<<<17772%&&;;%%&;$$##+++#::<<<<",
"aaaqqwaaaaaaaaaaaaaaaaaaaaaaaaaaaaaaq<<<>aaaaaaaaaaaaaaaaaaaaaaa",
"www000wwwwwwwwwwwwwwwwwwwwwwwwwwwwwww;;7wwwwwwwwwwwwwwwwwwwwwwww",
"www000wwwwwwwwwwwwwwwwwwwwwwwwwwwwwww>>wwwwwwwwwwwwwwwwwwwwwwwww",
"www00wwwwwwwwwwwwwwwwwwwwwwwwwwwwwwww>>wwwwwwwwwwwwwwwwwwwwwwwww",
"www00wwwwwwwwwwwwwwwwwwwwwwwwwwwwwwww>>wwwwwwwwwwwwwwwwwwwwwwwww",
"www770wwwwwwwwwwwwwwwwwwwwwwwwwwwwwww::wwwwwwwwwwwwwwwwwwwwwwwww",
"www778wwwwwwwwwwwwwwwwwwwwwwwwwwwwwww;;wwwwwwwwwwwwwwwwwwwwwwwww",
"++++++++++++++&;++++++++++++++++++++++++++++++++4#++++++++++++++",
"MMMMMMMMMMMMMMgqMMMMMMMMMMMMMMMMMMMMMMMMMMMMMMMM,vMMMMMMMMMMMMMM",
"MMMMMMMMMMMMMMuqMMMMMMMMMMMMMMMMMMMMMMMMMMMMMMMM,vMMMMMMMMMMMMMM",
"MMMMMMMMMMMMMMzfMMMMMMMMMMMMMMMMMMMMMMMMMMMMMMMM9MMMMMMMMMMMMMMM",
"MMMMMMMMMMMMMMzhMMMMMMMMMMMMMMMMMMMMMMMMMMMMMMMM9MMMMMMMMMMMMMMM",
"ZCCZZZCCZZZCCCNnCCCZZZCCCZZCCCCZCCCCZCCCCZZZCCZZrCCCZZCCCZZZCCZZ",
"eeeeeeeeeeeeeeqqeeeeeeeeeeeeeeeeeeeeeeeeeeeeeeee7eeeeeeeeeeeeeee",
"eeeeeeeeeeeeeeqqeeeeeeeeeeeeeeeeeeeeeeeeeeeeeeee7eeeeeeeeeeeeeee",
"eeeeeeeeeeeeeeq8eeeeeeeeeeeeeeeeeeeeeeeeeeeeeeee3eeeeeeeeeeeeeee",
"%&&%%%&&%%%&&&$#&&&%%%&&&%%&&&&%&&&&%&&&&%%%&&%%o&&&%%&&&%%%&&%%"
};
